<svg width="23" height="21" viewBox="0 0 23 21" fill="none" xmlns="http://www.w3.org/2000/svg">
<path fill-rule="evenodd" clip-rule="evenodd" d="M22.75 10.5C22.75 10.873 22.6018 11.2307 22.3381 11.4944C22.0743 11.7581 21.7167 11.9063 21.3437 11.9063H5.05089L11.0893 17.9419C11.2201 18.0726 11.3238 18.2278 11.3945 18.3987C11.4653 18.5695 11.5017 18.7526 11.5017 18.9375C11.5017 19.1224 11.4653 19.3055 11.3945 19.4763C11.3238 19.6472 11.2201 19.8024 11.0893 19.9331C10.9586 20.0639 10.8034 20.1676 10.6325 20.2384C10.4617 20.3091 10.2786 20.3455 10.0937 20.3455C9.9088 20.3455 9.7257 20.3091 9.55487 20.2384C9.38404 20.1676 9.22882 20.0639 9.09807 19.9331L0.660575 11.4956C0.529616 11.365 0.425714 11.2098 0.354821 11.039C0.283928 10.8681 0.247437 10.685 0.247437 10.5C0.247437 10.315 0.283928 10.1319 0.354821 9.96104C0.425714 9.79019 0.529616 9.63501 0.660575 9.50438L9.09807 1.06688C9.36213 0.802826 9.72027 0.65448 10.0937 0.65448C10.4671 0.65448 10.8253 0.802826 11.0893 1.06688C11.3534 1.33094 11.5017 1.68908 11.5017 2.06251C11.5017 2.43594 11.3534 2.79408 11.0893 3.05813L5.05089 9.09376H21.3437C21.7167 9.09376 22.0743 9.24192 22.3381 9.50564C22.6018 9.76936 22.75 10.127 22.75 10.5Z" fill="black"/>
</svg>
